HIERARCHY
ROOT hip
{
  OFFSET 0 0 0
  CHANNELS 6 Xposition Yposition Zposition Zrotation Yrotation Xrotation
  JOINT abdomen
  {
    OFFSET 0 20.6881 -0.73152
    CHANNELS 3 Zrotation Xrotation Yrotation
    JOINT chest
    {
      OFFSET 0 11.7043 -0.48768
      CHANNELS 3 Zrotation Xrotation Yrotation
      JOINT neck
      {
        OFFSET 0 22.1894 -2.19456
        CHANNELS 3 Zrotation Xrotation Yrotation
        JOINT head
        {
          OFFSET -0.24384 7.07133 1.2192
          CHANNELS 3 Zrotation Xrotation Yrotation
          JOINT leftEye
          {
            OFFSET 4.14528 8.04674 8.04672
            CHANNELS 3 Zrotation Xrotation Yrotation
            End Site
            {
              OFFSET 1 0 0
            }
          }
          JOINT rightEye
          {
            OFFSET -3.6576 8.04674 8.04672
            CHANNELS 3 Zrotation Xrotation Yrotation
            End Site
            {
              OFFSET 1 0 0
            }
          }
        }
      }
      JOINT rCollar
      {
        OFFSET -2.68224 19.2634 -4.8768
        CHANNELS 3 Zrotation Xrotation Yrotation
        JOINT rShldr
        {
          OFFSET -8.77824 -1.95073 1.46304
          CHANNELS 3 Zrotation Xrotation Yrotation
          JOINT rForeArm
          {
            OFFSET -28.1742 -1.7115 0.48768
            CHANNELS 3 Zrotation Xrotation Yrotation
            JOINT rHand
            {
              OFFSET -22.5879 0.773209 7.07136
              CHANNELS 3 Zrotation Xrotation Yrotation
              JOINT rThumb1
              {
                OFFSET -1.2192 -0.487915 3.41376
                CHANNELS 3 Zrotation Xrotation Yrotation
                JOINT rThumb2
                {
                  OFFSET -3.37035 -0.52449 3.41376
                  CHANNELS 3 Zrotation Xrotation Yrotation
                  End Site
                  {
                    OFFSET -1.78271 -1.18214 1.43049
                  }
                }
              }
              JOINT rIndex1
              {
                OFFSET -7.75947 0.938293 5.60832
                CHANNELS 3 Zrotation Xrotation Yrotation
                JOINT rIndex2
                {
                  OFFSET -2.54057 -0.884171 1.56538
                  CHANNELS 3 Zrotation Xrotation Yrotation
                  End Site
                  {
                    OFFSET -1.62519 -0.234802 1.16502
                  }
                }
              }
              JOINT rMid1
              {
                OFFSET -8.24714 1.18213 3.41376
                CHANNELS 3 Zrotation Xrotation Yrotation
                JOINT rMid2
                {
                  OFFSET -3.10165 -0.590103 1.0647
                  CHANNELS 3 Zrotation Xrotation Yrotation
                  End Site
                  {
                    OFFSET -2.48547 -0.328903 0.83742
                  }
                }
              }
              JOINT rRing1
              {
                OFFSET -8.82822 0.546677 1.51678
                CHANNELS 3 Zrotation Xrotation Yrotation
                JOINT rRing2
                {
                  OFFSET -2.60934 -0.819778 -0.0198488
                  CHANNELS 3 Zrotation Xrotation Yrotation
                  End Site
                  {
                    OFFSET -2.33842 -0.294052 0.168128
                  }
                }
              }
              JOINT rPinky1
              {
                OFFSET -8.27202 -0.0477905 -0.4584
                CHANNELS 3 Zrotation Xrotation Yrotation
                JOINT rPinky2
                {
                  OFFSET -1.82734 -0.647385 -0.700984
                  CHANNELS 3 Zrotation Xrotation Yrotation
                  End Site
                  {
                    OFFSET -1.69225 -0.51767 -0.607171
                  }
                }
              }
            }
          }
        }
      }
      JOINT lCollar
      {
        OFFSET 2.68224 19.2634 -4.8768
        CHANNELS 3 Zrotation Xrotation Yrotation
        JOINT lShldr
        {
          OFFSET 8.77824 -1.95073 1.46304
          CHANNELS 3 Zrotation Xrotation Yrotation
          JOINT lForeArm
          {
            OFFSET 28.1742 -1.7115 0.48768
            CHANNELS 3 Zrotation Xrotation Yrotation
            JOINT lHand
            {
              OFFSET 22.5879 0.773209 7.07136
              CHANNELS 3 Zrotation Xrotation Yrotation
              JOINT lThumb1
              {
                OFFSET 1.2192 -0.487915 3.41376
                CHANNELS 3 Zrotation Xrotation Yrotation
                JOINT lThumb2
                {
                  OFFSET 3.37035 -0.52449 3.41376
                  CHANNELS 3 Zrotation Xrotation Yrotation
                  End Site
                  {
                    OFFSET 1.78271 -1.18214 1.43049
                  }
                }
              }
              JOINT lIndex1
              {
                OFFSET 7.75947 0.938293 5.60832
                CHANNELS 3 Zrotation Xrotation Yrotation
                JOINT lIndex2
                {
                  OFFSET 2.54057 -0.884171 1.56538
                  CHANNELS 3 Zrotation Xrotation Yrotation
                  End Site
                  {
                    OFFSET 1.62519 -0.234802 1.16502
                  }
                }
              }
              JOINT lMid1
              {
                OFFSET 8.24714 1.18213 3.41376
                CHANNELS 3 Zrotation Xrotation Yrotation
                JOINT lMid2
                {
                  OFFSET 3.10165 -0.590103 1.0647
                  CHANNELS 3 Zrotation Xrotation Yrotation
                  End Site
                  {
                    OFFSET 2.48547 -0.328903 0.83742
                  }
                }
              }
              JOINT lRing1
              {
                OFFSET 8.82822 0.546677 1.51678
                CHANNELS 3 Zrotation Xrotation Yrotation
                JOINT lRing2
                {
                  OFFSET 2.60934 -0.819778 -0.0198488
                  CHANNELS 3 Zrotation Xrotation Yrotation
                  End Site
                  {
                    OFFSET 2.33842 -0.294052 0.168128
                  }
                }
              }
              JOINT lPinky1
              {
                OFFSET 8.27202 -0.0477905 -0.4584
                CHANNELS 3 Zrotation Xrotation Yrotation
                JOINT lPinky2
                {
                  OFFSET 1.82734 -0.647385 -0.700984
                  CHANNELS 3 Zrotation Xrotation Yrotation
                  End Site
                  {
                    OFFSET 1.69225 -0.51767 -0.607171
                  }
                }
              }
            }
          }
        }
      }
    }
  }
  JOINT rButtock
  {
    OFFSET -8.77824 4.35084 1.2192
    CHANNELS 3 Zrotation Xrotation Yrotation
    JOINT rThigh
    {
      OFFSET 0 -1.70687 -2.19456
      CHANNELS 3 Zrotation Xrotation Yrotation
      JOINT rShin
      {
        OFFSET 0 -36.8199 0.73152
        CHANNELS 3 Zrotation Xrotation Yrotation
        JOINT rFoot
        {
          OFFSET 0.73152 -45.1104 -5.12064
          CHANNELS 3 Zrotation Xrotation Yrotation
          End Site
          {
            OFFSET -1.1221 -3.69964 12.103
          }
        }
      }
    }
  }
  JOINT lButtock
  {
    OFFSET 8.77824 4.35084 1.2192
    CHANNELS 3 Zrotation Xrotation Yrotation
    JOINT lThigh
    {
      OFFSET 0 -1.70687 -2.19456
      CHANNELS 3 Zrotation Xrotation Yrotation
      JOINT lShin
      {
        OFFSET 0 -36.8199 0.73152
        CHANNELS 3 Zrotation Xrotation Yrotation
        JOINT lFoot
        {
          OFFSET -0.73152 -45.1104 -5.12064
          CHANNELS 3 Zrotation Xrotation Yrotation
          End Site
          {
            OFFSET 1.1221 -3.69964 12.103
          }
        }
      }
    }
  }
}
MOTION
Frames:	4
Frame Time:	0.00833333
-0.872131 84.9173 -170.888 0.0 0.0 0.0 -0.140625 -0.000295017 -0.00400525 -0.0387669 -0.000394553 -0.00671562 -1.44906e-15 -1.59028e-15 -6.21202e-18 -4.46644e-15 3.18055e-15 -1.0871e-17 -0.0 0.0 0.0 -0.0 0.0 0.0 -7.96491e-16 0.0 9.93923e-17 -1.23538e-14 -1.98785e-16 9.93923e-16 -2.66868e-13 8.01102e-14 9.54166e-15 -3.0551e-12 -8.24459e-14 -1.27222e-14 -7.20763e-12 -6.03475e-15 -9.54166e-15 -1.24495e-11 -9.54166e-15 -2.78299e-14 -7.19799e-12 -1.19271e-15 -1.59028e-14 7.73091 5.47488 0.417314 -7.20644e-12 -5.1684e-15 -6.36111e-15 2.90554 0.965183 0.102902 -7.1951e-12 -5.36719e-15 -1.27222e-14 10.2786 0.731801 0.0259123 -7.21012e-12 -7.95139e-15 -9.54166e-15 2.22167 -0.733487 -0.20892 -6.94441e-16 -3.88251e-19 -9.93923e-17 -1.86625e-14 0.0 -9.93923e-16 -2.67316e-13 -8.09054e-14 -9.54166e-15 -3.0579e-12 7.3923e-14 3.18055e-15 -7.21236e-12 -1.49777e-14 -2.22639e-14 -1.24515e-11 -2.54444e-14 -1.82882e-14 -7.21827e-12 -1.23246e-14 -1.90833e-14 -7.73091 5.47488 -0.417314 -7.21444e-12 -1.35174e-14 -1.90833e-14 -2.90554 0.965183 -0.102902 -7.22716e-12 -1.44119e-14 -1.66979e-14 -10.2786 0.731801 -0.0259123 -7.21469e-12 -1.63003e-14 -1.90833e-14 -2.22167 -0.733487 0.20892 -2.03217e-16 0.0 -3.88251e-19 0.41545 -2.89234 -0.0363694 -0.00657578 -0.313961 -0.0578453 -0.521683 3.20536 0.125418 2.03217e-16 0.0 3.88251e-19 -0.629354 -3.43714 0.0497312 0.0049779 0.672914 0.0432306 0.523146 2.76331 -0.116511
-0.756384 83.8262 -171.284 -3.201 7.3838 -0.4602 1.68332 0.534292 -3.06515 -0.414607 -1.25352 -0.894764 2.24535 -1.74877 0.521876 -3.38079 1.40179 0.300473 -0.0 0.0 0.0 -0.0 0.0 0.0 -1.49703e-14 2.22935e-14 1.64766e-14 21.1581 3.7656 0.0490881 -3.20837 -1.30181 5.16781 8.30585e-07 -0.0405143 -0.00569392 -1.44219e-10 5.3883e-10 -1.84721e-10 -2.50504e-10 9.33243e-10 -3.18784e-10 -1.4421e-10 5.38834e-10 -1.84727e-10 7.73091 5.47488 0.417314 -1.44218e-10 5.3883e-10 -1.84719e-10 2.90554 0.965183 0.102902 -1.44206e-10 5.3883e-10 -1.84724e-10 10.2786 0.731801 0.0259123 -1.4422e-10 5.38828e-10 -1.84719e-10 2.22167 -0.733487 -0.20892 -1.49225e-14 2.2293e-14 1.62472e-14 -22.0444 3.71319 1.70014 4.86718 -2.35772 -7.43669 -0.0163708 -2.83883 0.397203 5.23224e-11 2.90366e-11 2.80868e-10 8.85171e-11 4.7259e-11 4.86329e-10 5.23175e-11 2.90398e-11 2.80873e-10 -7.73091 5.47488 -0.417314 5.23216e-11 2.90384e-11 2.8087e-10 -2.90554 0.965183 -0.102902 5.23108e-11 2.90378e-11 2.80872e-10 -10.2786 0.731801 -0.0259123 5.23207e-11 2.90363e-11 2.80871e-10 -2.22167 -0.733487 0.20892 -2.03217e-16 0.0 -3.88251e-19 1.14284 -4.99499 -0.670872 0.00395963 6.70936 0.0664638 -0.998341 0.512344 -6.23989 2.03217e-16 0.0 3.88251e-19 0.935488 -5.98077 -1.122 -0.00432617 7.55197 -0.0636392 0.75715 0.419204 3.80753
-0.827247 83.824 -171.291 -3.1815 7.3909 -0.0606 3.6743 1.10102 -6.30734 -0.85144 -2.57882 -1.83628 4.66253 -3.5883 1.08096 -6.98317 2.87816 0.627817 -0.0 0.0 0.0 -0.0 0.0 0.0 -3.19592e-14 4.78203e-14 4.01856e-14 43.5123 7.75162 0.101573 -6.34698 -2.64337 10.6412 -8.91871e-06 -0.0873912 -0.012282 -3.10421e-10 1.19294e-09 -3.88059e-10 -5.39177e-10 2.06608e-09 -6.6965e-10 -3.10414e-10 1.19295e-09 -3.88065e-10 7.73091 5.47488 0.417314 -3.1042e-10 1.19294e-09 -3.88057e-10 2.90554 0.965183 0.102902 -3.10407e-10 1.19294e-09 -3.88061e-10 10.2786 0.731801 0.0259123 -3.10421e-10 1.19294e-09 -3.88053e-10 2.22167 -0.733487 -0.20892 -3.19677e-14 4.78198e-14 3.99216e-14 -45.5933 7.62704 3.52329 9.35263 -4.71754 -15.338 0.00931738 -5.83742 0.820079 1.07172e-10 2.50532e-11 6.18032e-10 1.80915e-10 3.67428e-11 1.07003e-09 1.07168e-10 2.5057e-11 6.18038e-10 -7.73091 5.47488 -0.417314 1.07173e-10 2.50554e-11 6.18031e-10 -2.90554 0.965183 -0.102902 1.07164e-10 2.50551e-11 6.18034e-10 -10.2786 0.731801 -0.0259123 1.07171e-10 2.50539e-11 6.18033e-10 -2.22167 -0.733487 0.20892 -2.03217e-16 0.0 -3.88251e-19 1.85966 -7.21132 -1.34776 -0.0188636 14.1331 0.203068 -2.14725 -2.26777 -12.9776 2.03217e-16 0.0 3.88251e-19 2.47468 -8.6595 -2.37467 0.0145191 14.8234 -0.181514 1.3525 -2.03771 7.95873
-0.924144 83.8309 -171.305 -3.2186 7.3768 0.3537 5.50181 1.58516 -9.19058 -1.28299 -3.75615 -2.67597 6.83194 -5.24457 1.57148 -10.1866 4.20491 0.903582 -0.0 0.0 0.0 -0.0 0.0 0.0 -4.3318e-14 6.68804e-14 4.9231e-14 63.4547 11.2968 0.14985 -8.92887 -3.77854 15.534 -2.16656e-05 -0.121543 -0.0170818 -4.18241e-10 1.6165e-09 -5.54144e-10 -7.26614e-10 2.79975e-09 -9.56297e-10 -4.18235e-10 1.6165e-09 -5.5415e-10 7.73091 5.47488 0.417314 -4.1824e-10 1.6165e-09 -5.54144e-10 2.90554 0.965183 0.102902 -4.18226e-10 1.6165e-09 -5.54146e-10 10.2786 0.731801 0.0259123 -4.18241e-10 1.6165e-09 -5.54137e-10 2.22167 -0.733487 -0.20892 -4.33786e-14 6.68798e-14 4.89402e-14 -66.8039 11.1 5.18701 12.8068 -6.59755 -22.4477 0.0700799 -8.51483 1.20341 1.71392e-10 8.71397e-11 8.4265e-10 2.90454e-10 1.41828e-10 1.45902e-09 1.71389e-10 8.7144e-11 8.42658e-10 -7.73091 5.47488 -0.417314 1.71394e-10 8.71422e-11 8.42647e-10 -2.90554 0.965183 -0.102902 1.71387e-10 8.71422e-11 8.42651e-10 -10.2786 0.731801 -0.0259123 1.71391e-10 8.71414e-11 8.4265e-10 -2.22167 -0.733487 0.20892 -2.03217e-16 0.0 -3.88251e-19 2.45625 -9.19604 -1.9575 -0.0712008 20.7557 0.335488 -3.71842 -4.59977 -19.033 2.03217e-16 0.0 3.88251e-19 3.74785 -11.0511 -3.51217 0.0585118 21.3098 -0.295952 2.18348 -4.17813 11.6865
